<svg width="24" height="24" viewBox="0 0 24 24" fill="none" xmlns="http://www.w3.org/2000/svg">
<g clip-path="url(#clip0_1578_23335)">
<path opacity="0.4" d="M11.3407 20.2895L11.3407 11.8115C11.3407 11.4193 11.659 11.1009 12.0512 11.1009C12.4434 11.1009 12.7617 11.4193 12.7617 11.8115L12.7617 20.2895C12.7617 20.6817 12.4434 21 12.0512 21C11.659 21 11.3407 20.6817 11.3407 20.2895Z" fill="white"/>
<mask id="mask0_1578_23335" style="mask-type:alpha" maskUnits="userSpaceOnUse" x="6" y="3" width="12" height="10">
<path fill-rule="evenodd" clip-rule="evenodd" d="M17.5 12.5215L6.6036 12.5215L6.6036 3.58202L17.5 3.58202V12.5215Z" fill="white"/>
</mask>
<g mask="url(#mask0_1578_23335)">
<path d="M6.60332 11.811C6.60332 11.6783 6.64027 11.5476 6.71227 11.432L11.4501 3.9137C11.5808 3.70717 11.8072 3.58117 12.0516 3.58117C12.2961 3.58117 12.5225 3.70717 12.6532 3.9137L17.391 11.432C17.5284 11.6509 17.5369 11.9275 17.4109 12.1539C17.2858 12.3813 17.0481 12.5215 16.7894 12.5215L7.31384 12.5215C7.05521 12.5215 6.81742 12.3813 6.69237 12.1539C6.63269 12.0469 6.60332 11.9284 6.60332 11.811Z" fill="white"/>
</g>
</g>
<defs>
<clipPath id="clip0_1578_23335">
<rect width="24" height="24" fill="white"/>
</clipPath>
</defs>
</svg>
