<svg width="24" height="24" viewBox="0 0 24 24" fill="none" xmlns="http://www.w3.org/2000/svg">
<g clip-path="url(#clip0_1578_23343)">
<path opacity="0.4" d="M2 7.916V16.084C2 19.623 4.276 22 7.665 22H16.335C19.724 22 22 19.623 22 16.084V7.916C22 4.378 19.723 2 16.334 2H7.665C4.276 2 2 4.378 2 7.916Z" fill="white"/>
<path d="M7.72033 12.8559L11.4683 16.6209C11.7503 16.9039 12.2493 16.9039 12.5323 16.6209L16.2803 12.8559C16.5723 12.5619 16.5713 12.0869 16.2773 11.7949C15.9833 11.5029 15.5093 11.5029 15.2163 11.7969L12.7493 14.2739V7.91895C12.7493 7.50395 12.4133 7.16895 11.9993 7.16895C11.5853 7.16895 11.2493 7.50395 11.2493 7.91895V14.2739L8.78333 11.7969C8.63633 11.6499 8.44433 11.5769 8.25133 11.5769C8.06033 11.5769 7.86833 11.6499 7.72233 11.7949C7.42933 12.0869 7.42833 12.5619 7.72033 12.8559Z" fill="white"/>
</g>
<defs>
<clipPath id="clip0_1578_23343">
<rect width="24" height="24" fill="white"/>
</clipPath>
</defs>
</svg>
