<svg width="24" height="24" viewBox="0 0 24 24" fill="none" xmlns="http://www.w3.org/2000/svg">
<g clip-path="url(#clip0_1578_23340)">
<path opacity="0.4" d="M20.2895 12.6593L11.8115 12.6593C11.4193 12.6593 11.1009 12.341 11.1009 11.9488C11.1009 11.5566 11.4193 11.2383 11.8115 11.2383L20.2895 11.2383C20.6817 11.2383 21 11.5566 21 11.9488C21 12.341 20.6817 12.6593 20.2895 12.6593Z" fill="white"/>
<mask id="mask0_1578_23340" style="mask-type:alpha" maskUnits="userSpaceOnUse" x="3" y="6" width="10" height="12">
<path fill-rule="evenodd" clip-rule="evenodd" d="M12.5215 6.5L12.5215 17.3964H3.58202L3.58202 6.5L12.5215 6.5Z" fill="white"/>
</mask>
<g mask="url(#mask0_1578_23340)">
<path d="M11.811 17.3967C11.6783 17.3967 11.5476 17.3597 11.432 17.2877L3.9137 12.5499C3.70717 12.4192 3.58117 12.1928 3.58117 11.9484C3.58117 11.7039 3.70717 11.4775 3.9137 11.3468L11.432 6.609C11.6509 6.47163 11.9275 6.4631 12.1539 6.5891C12.3813 6.71416 12.5215 6.95195 12.5215 7.21058L12.5215 16.6862C12.5215 16.9448 12.3813 17.1826 12.1539 17.3076C12.0469 17.3673 11.9284 17.3967 11.811 17.3967Z" fill="white"/>
</g>
</g>
<defs>
<clipPath id="clip0_1578_23340">
<rect width="24" height="24" fill="white"/>
</clipPath>
</defs>
</svg>
