<svg width="24" height="24" viewBox="0 0 24 24" fill="none" xmlns="http://www.w3.org/2000/svg">
<g clip-path="url(#clip0_1578_23328)">
<path opacity="0.4" d="M7.916 22H16.084C19.623 22 22 19.724 22 16.335V7.665C22 4.276 19.623 2 16.084 2H7.916C4.378 2 2 4.277 2 7.666L2 16.335C2 19.724 4.378 22 7.916 22Z" fill="white"/>
<path d="M12.855 16.2797L16.62 12.5317C16.903 12.2497 16.903 11.7507 16.62 11.4677L12.855 7.71967C12.561 7.42767 12.086 7.42867 11.794 7.72267C11.502 8.01667 11.502 8.49067 11.796 8.78367L14.273 11.2507H7.91797C7.50297 11.2507 7.16797 11.5867 7.16797 12.0007C7.16797 12.4147 7.50297 12.7507 7.91797 12.7507H14.273L11.796 15.2167C11.649 15.3637 11.576 15.5557 11.576 15.7487C11.576 15.9397 11.649 16.1317 11.794 16.2777C12.086 16.5707 12.561 16.5717 12.855 16.2797Z" fill="white"/>
</g>
<defs>
<clipPath id="clip0_1578_23328">
<rect width="24" height="24" fill="white"/>
</clipPath>
</defs>
</svg>
