<svg width="24" height="24" viewBox="0 0 24 24" fill="none" xmlns="http://www.w3.org/2000/svg">
<g clip-path="url(#clip0_1578_23341)">
<path opacity="0.4" d="M22 12C22 17.515 17.514 22 12 22C6.486 22 2 17.515 2 12C2 6.486 6.486 2 12 2C17.514 2 22 6.486 22 12Z" fill="white"/>
<path d="M16.2201 10.558C16.2201 10.749 16.1471 10.941 16.0011 11.087L12.5311 14.574C12.3901 14.715 12.1991 14.794 11.9991 14.794C11.8001 14.794 11.6091 14.715 11.4681 14.574L7.99609 11.087C7.70409 10.794 7.70409 10.32 7.99809 10.027C8.29209 9.73497 8.76709 9.73597 9.05909 10.029L11.9991 12.982L14.9391 10.029C15.2311 9.73597 15.7051 9.73497 15.9991 10.027C16.1471 10.173 16.2201 10.366 16.2201 10.558Z" fill="white"/>
</g>
<defs>
<clipPath id="clip0_1578_23341">
<rect width="24" height="24" fill="white"/>
</clipPath>
</defs>
</svg>
