<svg width="24" height="24" viewBox="0 0 24 24" fill="none" xmlns="http://www.w3.org/2000/svg">
<g clip-path="url(#clip0_1578_23333)">
<path opacity="0.4" d="M22 16.084V7.916C22 4.377 19.724 2 16.335 2H7.665C4.276 2 2 4.377 2 7.916V16.084C2 19.622 4.277 22 7.666 22H16.335C19.724 22 22 19.622 22 16.084Z" fill="white"/>
<path d="M16.2797 11.1441L12.5317 7.37906C12.2497 7.09606 11.7507 7.09606 11.4677 7.37906L7.71967 11.1441C7.42767 11.4381 7.42867 11.9131 7.72267 12.2051C8.01667 12.4971 8.49067 12.4971 8.78367 12.2031L11.2507 9.72605V16.0811C11.2507 16.4961 11.5867 16.8311 12.0007 16.8311C12.4147 16.8311 12.7507 16.4961 12.7507 16.0811V9.72605L15.2167 12.2031C15.3637 12.3501 15.5557 12.4231 15.7487 12.4231C15.9397 12.4231 16.1317 12.3501 16.2777 12.2051C16.5707 11.9131 16.5717 11.4381 16.2797 11.1441Z" fill="white"/>
</g>
<defs>
<clipPath id="clip0_1578_23333">
<rect width="24" height="24" fill="white"/>
</clipPath>
</defs>
</svg>
