<svg width="24" height="24" viewBox="0 0 24 24" fill="none" xmlns="http://www.w3.org/2000/svg">
<g clip-path="url(#clip0_1578_23338)">
<path opacity="0.4" d="M16.084 2L7.916 2C4.377 2 2 4.276 2 7.665L2 16.335C2 19.724 4.377 22 7.916 22L16.084 22C19.622 22 22 19.723 22 16.334L22 7.665C22 4.276 19.622 2 16.084 2Z" fill="white"/>
<path d="M11.145 7.72033L7.38003 11.4683C7.09703 11.7503 7.09703 12.2493 7.38003 12.5323L11.145 16.2803C11.439 16.5723 11.914 16.5713 12.206 16.2773C12.498 15.9833 12.498 15.5093 12.204 15.2163L9.72703 12.7493H16.082C16.497 12.7493 16.832 12.4133 16.832 11.9993C16.832 11.5853 16.497 11.2493 16.082 11.2493L9.72703 11.2493L12.204 8.78333C12.351 8.63633 12.424 8.44433 12.424 8.25133C12.424 8.06033 12.351 7.86833 12.206 7.72233C11.914 7.42933 11.439 7.42833 11.145 7.72033Z" fill="white"/>
</g>
<defs>
<clipPath id="clip0_1578_23338">
<rect width="24" height="24" fill="white"/>
</clipPath>
</defs>
</svg>
