<svg width="24" height="24" viewBox="0 0 24 24" fill="none" xmlns="http://www.w3.org/2000/svg">
<g clip-path="url(#clip0_1578_23339)">
<path d="M16.7857 10.8672L9.93756 15.0865C9.78418 15.1805 9.58782 15.1715 9.44422 15.0605C8.7936 14.5594 8.21234 14.0514 7.82451 13.6244C7.82451 13.6244 7.49041 13.2824 7.34582 13.0654C7.11234 12.7693 7 12.3823 7 12.0063C7 11.5843 7.12309 11.1853 7.36829 10.8662C7.42398 10.8092 7.63597 10.5582 7.83623 10.3532C9.00461 9.07715 12.0545 6.96905 13.6586 6.33002C13.8921 6.22701 14.5153 6.012 14.8387 6C15.1503 6 15.4512 6.068 15.7404 6.21701C16.096 6.42202 16.3744 6.74004 16.5307 7.11706C16.6313 7.37907 16.7866 8.16511 16.7866 8.18811C16.8873 8.74914 16.9625 9.53718 16.9996 10.4572C17.0064 10.6222 16.9234 10.7822 16.7857 10.8672Z" fill="white"/>
<path opacity="0.4" d="M16.3285 13.1395C16.6303 12.9525 17.0103 13.1915 16.9957 13.5505C16.9595 14.3925 16.897 15.1346 16.8208 15.6866C16.8091 15.6986 16.6538 16.6777 16.475 17.0087C16.1634 17.6237 15.5518 17.9997 14.8944 17.9997H14.8397C14.4157 17.9887 13.514 17.6127 13.514 17.5897C13.0597 17.4007 12.4667 17.0807 11.8288 16.6957C11.5416 16.5216 11.5348 16.0946 11.822 15.9176L16.3285 13.1395Z" fill="white"/>
</g>
<defs>
<clipPath id="clip0_1578_23339">
<rect width="24" height="24" fill="white"/>
</clipPath>
</defs>
</svg>
