<svg width="24" height="24" viewBox="0 0 24 24" fill="none" xmlns="http://www.w3.org/2000/svg">
<g clip-path="url(#clip0_1578_23331)">
<path opacity="0.4" d="M2 12C2 6.485 6.486 2 12 2C17.514 2 22 6.485 22 12C22 17.514 17.514 22 12 22C6.486 22 2 17.514 2 12Z" fill="white"/>
<path d="M7.77991 13.442C7.77991 13.251 7.85291 13.059 7.99891 12.913L11.4689 9.42603C11.6099 9.28503 11.8009 9.20603 12.0009 9.20603C12.1999 9.20603 12.3909 9.28503 12.5319 9.42603L16.0039 12.913C16.2959 13.206 16.2959 13.68 16.0019 13.973C15.7079 14.265 15.2329 14.264 14.9409 13.971L12.0009 11.018L9.06091 13.971C8.76891 14.264 8.29491 14.265 8.00091 13.973C7.85291 13.827 7.77991 13.634 7.77991 13.442Z" fill="white"/>
</g>
<defs>
<clipPath id="clip0_1578_23331">
<rect width="24" height="24" fill="white"/>
</clipPath>
</defs>
</svg>
