<svg width="24" height="24" viewBox="0 0 24 24" fill="none" xmlns="http://www.w3.org/2000/svg">
<g clip-path="url(#clip0_1578_23329)">
<path d="M7.21433 13.1328L14.0624 8.91355C14.2158 8.81954 14.4122 8.82854 14.5558 8.93955C15.2064 9.44057 15.7877 9.9486 16.1755 10.3756C16.1755 10.3756 16.5096 10.7176 16.6542 10.9346C16.8877 11.2307 17 11.6177 17 11.9937C17 12.4157 16.8769 12.8147 16.6317 13.1338C16.576 13.1908 16.364 13.4418 16.1638 13.6468C14.9954 14.9228 11.9455 17.031 10.3414 17.67C10.1079 17.773 9.48466 17.988 9.16131 18C8.84967 18 8.54879 17.932 8.25962 17.783C7.90403 17.578 7.62561 17.26 7.46931 16.8829C7.36869 16.6209 7.21336 15.8349 7.21336 15.8119C7.11274 15.2509 7.03751 14.4628 7.00039 13.5428C6.99355 13.3778 7.07659 13.2178 7.21433 13.1328Z" fill="white"/>
<path opacity="0.4" d="M7.67154 10.8605C7.36968 11.0475 6.98966 10.8085 7.00432 10.4495C7.04046 9.60746 7.10298 8.86542 7.17918 8.31339C7.19091 8.30139 7.34623 7.32234 7.52501 6.99133C7.83664 6.3763 8.44818 6.00028 9.10564 6.00028H9.16035C9.58433 6.01128 10.486 6.3873 10.486 6.4103C10.9403 6.59931 11.5333 6.91932 12.1712 7.30434C12.4584 7.47835 12.4652 7.90537 12.178 8.08238L7.67154 10.8605Z" fill="white"/>
</g>
<defs>
<clipPath id="clip0_1578_23329">
<rect width="24" height="24" fill="white"/>
</clipPath>
</defs>
</svg>
