<svg width="24" height="24" viewBox="0 0 24 24" fill="none" xmlns="http://www.w3.org/2000/svg">
<path fill-rule="evenodd" clip-rule="evenodd" d="M6.18444 14.2049C-0.247041 6.91777 2.9687 4.73915 3.25325 4.38499C6.32196 1.27266 6.79797 2.6893 9.20872 5.13624C11.2397 7.20754 8.60683 8.1949 9.68579 10.6526L6.18444 14.2049Z" fill="white"/>
<path fill-rule="evenodd" clip-rule="evenodd" d="M12.0895 13.3818C15.3697 16.0756 16.2949 12.2228 18.6183 14.5838C21.0154 17.0308 22.3937 17.5244 19.3542 20.626C18.9968 20.9373 16.6944 24.4682 8.79883 16.741L12.0895 13.3818Z" fill="white"/>
<path opacity="0.4" d="M21.3746 3.85937V3.86954L11.9584 13.5151L3.44417 22.246C3.27567 22.4086 3.06752 22.5 2.84946 22.5C2.6314 22.5 2.42326 22.4086 2.24484 22.246C1.96731 21.9512 1.92767 21.5141 2.11599 21.1889L2.14573 21.1482C2.16555 21.1167 2.18537 21.0873 2.21511 21.0568L20.1753 2.62954C20.324 2.46691 20.542 2.36426 20.77 2.36426C20.998 2.36426 21.216 2.46691 21.3746 2.62954C21.7017 2.97511 21.7017 3.5138 21.3746 3.85937Z" fill="white"/>
</svg>
