<svg width="24" height="24" viewBox="0 0 24 24" fill="none" xmlns="http://www.w3.org/2000/svg">
<path fill-rule="evenodd" clip-rule="evenodd" d="M16.7105 10.0721C16.7105 10.5715 17.1105 10.9711 17.6105 10.9711C18.1105 10.9711 18.5205 10.5715 18.5205 10.0721C18.5205 9.57263 18.1105 9.16309 17.6105 9.16309C17.1105 9.16309 16.7105 9.57263 16.7105 10.0721ZM14.7705 16.1054C14.0605 16.8146 13.0805 17.2541 12.0005 17.2541C10.9505 17.2541 9.97049 16.8446 9.22049 16.1054C8.48049 15.3562 8.07049 14.3773 8.07049 13.3285C8.06049 12.2896 8.47049 11.3107 9.21049 10.5615C9.96049 9.81236 10.9505 9.40282 12.0005 9.40282C13.0505 9.40282 14.0405 9.81236 14.7805 10.5515C15.5205 11.3007 15.9305 12.2896 15.9305 13.3285C15.9205 14.4172 15.4805 15.3962 14.7705 16.1054ZM12.0005 10.9012C11.3505 10.9012 10.7405 11.1509 10.2705 11.6204C9.81049 12.0798 9.56049 12.6892 9.57049 13.3185V13.3285C9.57049 13.9777 9.82049 14.5871 10.2805 15.0465C10.7405 15.506 11.3505 15.7558 12.0005 15.7558C13.3405 15.7558 14.4205 14.667 14.4305 13.3285C14.4305 12.6792 14.1805 12.0699 13.7205 11.6104C13.2605 11.1509 12.6505 10.9012 12.0005 10.9012Z" fill="white"/>
<path opacity="0.4" d="M17.44 6.2364L17.34 6.01665C17.07 5.44728 16.76 4.78801 16.57 4.40844C16.11 3.50943 15.32 3.00999 14.35 3H9.64C8.67 3.00999 7.89 3.50943 7.43 4.40844C7.23 4.80799 6.89 5.52719 6.61 6.11654L6.55 6.2364C6.52 6.31632 6.44 6.35627 6.36 6.35627C3.95 6.35627 2 8.3141 2 10.7114V16.6448C2 19.0422 3.95 21 6.36 21H17.64C20.04 21 22 19.0422 22 16.6448V10.7114C22 8.3141 20.04 6.35627 17.64 6.35627C17.55 6.35627 17.48 6.30633 17.44 6.2364Z" fill="white"/>
</svg>
