<svg width="24" height="24" viewBox="0 0 24 24" fill="none" xmlns="http://www.w3.org/2000/svg">
<path opacity="0.4" d="M11.9993 21.9986C11.2303 21.9986 10.4623 21.7066 9.87526 21.1236L9.14526 20.3936C8.86226 20.1116 8.48326 19.9556 8.08126 19.9546H7.05426C5.39426 19.9546 4.04326 18.6036 4.04326 16.9436V15.9156C4.04226 15.5146 3.88626 15.1356 3.60326 14.8506L2.88526 14.1336C1.70926 12.9646 1.70426 11.0536 2.87426 9.87664L3.60426 9.14564C3.88626 8.86264 4.04226 8.48364 4.04326 8.08164V7.05564C4.04326 5.39464 5.39426 4.04364 7.05426 4.04364H8.08226C8.48326 4.04364 8.86126 3.88764 9.14626 3.60264L9.86526 2.88564C11.0343 1.70964 12.9443 1.70364 14.1223 2.87464L14.8523 3.60464C15.1363 3.88764 15.5143 4.04364 15.9153 4.04364H16.9433C18.6033 4.04364 19.9543 5.39464 19.9543 7.05564V8.08264C19.9553 8.48364 20.1113 8.86264 20.3943 9.14764L21.1123 9.86564C21.6813 10.4316 21.9963 11.1856 21.9993 11.9906C22.0013 12.7906 21.6933 13.5436 21.1323 14.1126C21.1223 14.1226 21.1133 14.1336 21.1033 14.1426L20.3933 14.8526C20.1113 15.1356 19.9553 15.5146 19.9543 15.9166V16.9436C19.9543 18.6036 18.6033 19.9546 16.9433 19.9546H15.9153C15.5143 19.9556 15.1353 20.1116 14.8513 20.3946L14.1323 21.1126C13.5463 21.7026 12.7723 21.9986 11.9993 21.9986Z" fill="white"/>
<path fill-rule="evenodd" clip-rule="evenodd" d="M10.0437 10.0506C9.87873 10.2156 9.66473 10.3046 9.42773 10.3046C9.20573 10.3046 8.98773 10.2136 8.81273 10.0496C8.64673 9.88459 8.55273 9.65858 8.55273 9.42958C8.55273 9.21158 8.64473 8.98758 8.80673 8.81458C8.89573 8.72458 9.00173 8.65658 9.10773 8.62058C9.40973 8.48258 9.81073 8.56358 10.0487 8.81358C10.1337 8.89858 10.1987 8.99158 10.2417 9.08858C10.2887 9.19258 10.3127 9.31058 10.3127 9.42958C10.3127 9.66758 10.2177 9.88858 10.0437 10.0506ZM15.1914 8.80948C14.8504 8.46948 14.2954 8.46948 13.9544 8.80948L8.81443 13.9495C8.47343 14.2905 8.47343 14.8455 8.81443 15.1875C8.98043 15.3525 9.19943 15.4435 9.43343 15.4435C9.66743 15.4435 9.88643 15.3525 10.0514 15.1875L15.1914 10.0475C15.5324 9.70548 15.5324 9.15148 15.1914 8.80948ZM14.9067 13.7636C14.5827 13.6276 14.1987 13.7016 13.9427 13.9576C13.8897 14.0196 13.8147 14.1156 13.7637 14.2286C13.7097 14.3506 13.7027 14.4816 13.7027 14.5696C13.7027 14.6576 13.7097 14.7876 13.7637 14.9096C13.8137 15.0216 13.8737 15.1126 13.9527 15.1916C14.1337 15.3596 14.3437 15.4446 14.5777 15.4446C14.7997 15.4446 15.0177 15.3546 15.1967 15.1876C15.3557 15.0286 15.4427 14.8086 15.4427 14.5696C15.4427 14.3296 15.3557 14.1106 15.1957 13.9506C15.1077 13.8636 15.0017 13.7956 14.9067 13.7636Z" fill="white"/>
</svg>
