<svg width="24" height="24" viewBox="0 0 24 24" fill="none" xmlns="http://www.w3.org/2000/svg">
<path opacity="0.4" d="M22 12C22 17.523 17.523 22 12 22C6.477 22 2 17.523 2 12C2 6.478 6.477 2 12 2C17.523 2 22 6.478 22 12Z" fill="white"/>
<path d="M15.8607 8.70481L14.2407 13.8248C14.1807 14.0348 14.0107 14.2048 13.8007 14.2658L8.70069 15.8648C8.36069 15.9758 8.03069 15.6448 8.14069 15.3048L9.74069 10.1748C9.80069 9.96481 9.97069 9.80481 10.1807 9.73481L15.3007 8.13481C15.6507 8.02481 15.9707 8.35481 15.8607 8.70481Z" fill="white"/>
</svg>
