<svg width="24" height="24" viewBox="0 0 24 24" fill="none" xmlns="http://www.w3.org/2000/svg">
<path opacity="0.4" d="M16.34 2H7.67C4.28 2 2 4.38 2 7.92V16.09C2 19.62 4.28 22 7.67 22H16.34C19.73 22 22 19.62 22 16.09V7.92C22 4.38 19.73 2 16.34 2Z" fill="white"/>
<path fill-rule="evenodd" clip-rule="evenodd" d="M11.1241 8.18945C11.1241 8.67145 11.5151 9.06445 11.9941 9.06445C12.4871 9.06445 12.8791 8.67145 12.8791 8.18945C12.8791 7.70745 12.4871 7.31445 12.0041 7.31445C11.5191 7.31445 11.1241 7.70745 11.1241 8.18945ZM12.8691 11.3623C12.8691 10.8803 12.4761 10.4873 11.9941 10.4873C11.5121 10.4873 11.1191 10.8803 11.1191 11.3623V15.7823C11.1191 16.2643 11.5121 16.6573 11.9941 16.6573C12.4761 16.6573 12.8691 16.2643 12.8691 15.7823V11.3623Z" fill="white"/>
</svg>
