<svg width="24" height="24" viewBox="0 0 24 24" fill="none" xmlns="http://www.w3.org/2000/svg">
<path opacity="0.4" d="M22 12C22 17.524 17.523 22 12 22C6.477 22 2 17.524 2 12C2 6.478 6.477 2 12 2C17.523 2 22 6.478 22 12Z" fill="white"/>
<path fill-rule="evenodd" clip-rule="evenodd" d="M7.52027 10.8037C6.85927 10.8037 6.32227 11.3407 6.32227 11.9997C6.32227 12.6597 6.85927 13.1977 7.52027 13.1977C8.18127 13.1977 8.71827 12.6597 8.71827 11.9997C8.71827 11.3407 8.18127 10.8037 7.52027 10.8037ZM11.9994 10.8037C11.3384 10.8037 10.8014 11.3407 10.8014 11.9997C10.8014 12.6597 11.3384 13.1977 11.9994 13.1977C12.6604 13.1977 13.1974 12.6597 13.1974 11.9997C13.1974 11.3407 12.6604 10.8037 11.9994 10.8037ZM15.2808 11.9997C15.2808 11.3407 15.8178 10.8037 16.4788 10.8037C17.1398 10.8037 17.6768 11.3407 17.6768 11.9997C17.6768 12.6597 17.1398 13.1977 16.4788 13.1977C15.8178 13.1977 15.2808 12.6597 15.2808 11.9997Z" fill="white"/>
</svg>
