<svg width="24" height="24" viewBox="0 0 24 24" fill="none" xmlns="http://www.w3.org/2000/svg">
<path opacity="0.4" d="M18.8088 9.021C18.3573 9.021 17.7592 9.011 17.0146 9.011C15.1987 9.011 13.7055 7.508 13.7055 5.675V2.459C13.7055 2.206 13.5026 2 13.253 2H7.96363C5.49517 2 3.5 4.026 3.5 6.509V17.284C3.5 19.889 5.59022 22 8.16958 22H16.0453C18.5058 22 20.5 19.987 20.5 17.502V9.471C20.5 9.217 20.298 9.012 20.0465 9.013C19.6247 9.016 19.1168 9.021 18.8088 9.021Z" fill="white"/>
<path opacity="0.4" d="M16.0847 2.56737C15.7857 2.25637 15.2637 2.47037 15.2637 2.90137V5.53837C15.2637 6.64437 16.1747 7.55437 17.2797 7.55437C17.9777 7.56237 18.9457 7.56437 19.7677 7.56237C20.1887 7.56137 20.4027 7.05837 20.1107 6.75437C19.0557 5.65737 17.1667 3.69137 16.0847 2.56737Z" fill="white"/>
<path d="M15.1043 12.8833C14.8133 13.1723 14.3423 13.1743 14.0503 12.8813L12.4613 11.2843V16.1113C12.4613 16.5223 12.1273 16.8563 11.7163 16.8563C11.3053 16.8563 10.9723 16.5223 10.9723 16.1113V11.2843L9.38125 12.8813C9.09125 13.1743 8.61925 13.1723 8.32825 12.8833C8.03725 12.5943 8.03625 12.1223 8.32625 11.8303L11.1883 8.95533C11.1893 8.95433 11.1893 8.95433 11.1893 8.95433C11.2573 8.88633 11.3393 8.83133 11.4293 8.79433C11.5193 8.75633 11.6173 8.73633 11.7163 8.73633C11.8163 8.73633 11.9143 8.75633 12.0043 8.79433C12.0933 8.83133 12.1743 8.88633 12.2423 8.95333C12.2433 8.95433 12.2443 8.95433 12.2443 8.95533L15.1063 11.8303C15.3963 12.1223 15.3963 12.5943 15.1043 12.8833Z" fill="white"/>
</svg>
