<svg width="24" height="24" viewBox="0 0 24 24" fill="none" xmlns="http://www.w3.org/2000/svg">
<path opacity="0.4" d="M18.8089 9.021C18.3574 9.021 17.7594 9.011 17.0149 9.011C15.199 9.011 13.7059 7.508 13.7059 5.675V2.459C13.7059 2.206 13.503 2 13.2525 2H7.96337C5.49604 2 3.5 4.026 3.5 6.509V17.284C3.5 19.889 5.59109 22 8.1703 22H16.0455C18.5059 22 20.5 19.987 20.5 17.502V9.471C20.5 9.217 20.298 9.012 20.0465 9.013C19.6238 9.016 19.1168 9.021 18.8089 9.021Z" fill="white"/>
<path opacity="0.4" d="M16.0847 2.56737C15.7867 2.25637 15.2637 2.47037 15.2637 2.90137V5.53837C15.2637 6.64437 16.1747 7.55437 17.2807 7.55437C17.9777 7.56237 18.9457 7.56437 19.7687 7.56237C20.1887 7.56137 20.4027 7.05837 20.1107 6.75437C19.0557 5.65737 17.1667 3.69137 16.0847 2.56737Z" fill="white"/>
<path d="M14.3677 14.5691H9.42469C9.01369 14.5691 8.67969 14.2361 8.67969 13.8251C8.67969 13.4141 9.01369 13.0801 9.42469 13.0801H14.3677C14.7787 13.0801 15.1127 13.4141 15.1127 13.8251C15.1127 14.2361 14.7787 14.5691 14.3677 14.5691Z" fill="white"/>
</svg>
