<svg width="24" height="24" viewBox="0 0 24 24" fill="none" xmlns="http://www.w3.org/2000/svg">
<path opacity="0.4" d="M6.447 22C3.996 22 2 19.9698 2 17.4755V12.5144C2 10.0252 3.99 8 6.437 8L17.553 8C20.005 8 22 10.0302 22 12.5256V17.4846C22 19.9748 20.01 22 17.563 22H16.623H6.447Z" fill="white"/>
<path d="M11.4541 2.22079L8.54506 5.06658C8.24506 5.3607 8.24506 5.83402 8.54706 6.12717C8.84906 6.41935 9.33606 6.41838 9.63606 6.12523L11.2291 4.56598V6.06095V14.4513C11.2291 14.8652 11.5741 15.2012 11.9991 15.2012C12.4251 15.2012 12.7691 14.8652 12.7691 14.4513V4.56598L14.3621 6.12523C14.6621 6.41838 15.1491 6.41935 15.4511 6.12717C15.6021 5.98011 15.6781 5.78825 15.6781 5.59541C15.6781 5.40453 15.6021 5.21266 15.4531 5.06658L12.5451 2.22079C12.4001 2.07957 12.2041 1.99971 11.9991 1.99971C11.7951 1.99971 11.5991 2.07957 11.4541 2.22079Z" fill="white"/>
</svg>
