<svg width="32" height="32" viewBox="0 0 32 32" fill="none" xmlns="http://www.w3.org/2000/svg">
<path d="M16.0003 0.761963C11.9589 0.761963 8.08304 2.3674 5.22534 5.2251C2.36764 8.0828 0.762207 11.9587 0.762207 16.0001C0.762207 20.0415 2.36764 23.9173 5.22534 26.775C8.08304 29.6327 11.9589 31.2382 16.0003 31.2382C20.0417 31.2382 23.9176 29.6327 26.7753 26.775C29.633 23.9173 31.2384 20.0415 31.2384 16.0001C31.2384 11.9587 29.633 8.0828 26.7753 5.2251C23.9176 2.3674 20.0417 0.761963 16.0003 0.761963V0.761963Z" fill="#1565C0"/>
<path d="M22.3241 8.76184L20.8003 9.90469C20.5717 10.1333 20.4955 10.438 20.5717 10.7428L21.2574 11.5809C21.3336 11.8856 21.1813 12.2666 20.8765 12.419C20.4955 12.6476 19.5813 13.1047 19.5813 13.3333C19.5813 13.8666 19.9622 15.1618 20.267 15.1618C22.6289 15.1618 21.1813 14.0952 22.8574 13.0285C23.8479 12.419 25.4479 12.1142 25.8289 12.1142H27.3527V22.7809H22.0193C22.0193 22.7809 22.9336 24.2285 23.7717 25.8285C24.1527 26.5904 25.067 28.1142 25.067 28.1142C28.9527 25.1428 31.1622 20.6476 31.1622 15.9237C31.1622 11.0476 28.8003 6.6285 25.2193 3.88565L23.0098 7.77136C22.8574 8.2285 22.6289 8.53327 22.3241 8.76184ZM8.45745 16.7618C9.14316 16.7618 9.14316 16.1523 9.14316 15.238C9.14316 14.3237 8.99078 12.9523 11.4289 12.9523C12.4194 12.9523 13.7146 12.9523 13.7146 11.4285C13.7146 10.819 13.7146 8.38089 13.7146 7.61898C13.7146 7.39041 13.6384 6.39993 12.1146 6.39993C10.8193 6.39993 9.82887 6.17136 9.82887 5.25708C9.82887 4.57136 10.3622 2.97136 11.4289 1.52374C5.79078 3.27612 1.67649 8.15231 0.914588 14.0952L0.762207 15.238C2.4384 15.238 6.70506 15.238 6.85745 15.238C8.0003 15.238 7.77173 16.7618 8.45745 16.7618ZM15.2384 21.3333C14.3241 21.3333 13.7146 21.3333 12.6479 20.038C12.1908 19.5809 11.5051 19.0476 10.9717 19.0476C10.4384 19.0476 9.75268 19.0476 9.75268 19.0476H9.14316L8.38125 19.8095L9.90506 25.1428V29.9428C10.667 30.2475 11.4289 30.5523 12.1908 30.7809C12.4955 28.419 14.3241 25.5999 14.4765 25.1428C14.6289 24.838 15.2384 23.3904 15.2384 23.3904V21.3333Z" fill="#43A047"/>
<path d="M25.9048 12.1905C25.9048 12.1905 26.6667 12.9524 26.6667 15.2381C26.6667 16 25.1429 16.7619 22.8572 16.7619C19.0476 16.7619 19.0476 18.9714 19.0476 19.8095C19.0476 22.5524 22.0953 22.8572 22.0953 22.8572C22.0953 22.8572 25.1429 22.8572 27.4286 25.9048L27.5048 25.981C29.7905 23.3143 31.2381 19.8095 31.2381 16C31.2381 13.4095 30.5524 10.8952 29.4095 8.76191L29.181 8.38096H28.9524C26.6667 8.38096 26.8953 11.4286 25.9048 12.1905ZM2.28574 16C2.74288 16.9143 3.88574 17.7524 4.80002 18.4381C5.40955 18.8952 7.61907 19.8095 7.61907 21.3333C7.61907 23.9238 9.14288 26.6667 9.14288 28.1905V29.5619L10.6667 30.2476C10.6667 30.2476 10.6667 29.2572 10.6667 28.9524C10.6667 26.6667 13.2572 25.1429 14.4762 25.1429C14.4762 25.1429 16 24.9905 16 22.4762C16 22.1714 15.6953 21.3333 15.2381 21.3333C15.2381 21.3333 14.8572 22.8572 11.9619 22.8572C10.4381 22.8572 9.06669 22.0191 9.06669 19.0476H7.61907C7.16193 19.0476 6.78097 18.4381 6.78097 18.0571C6.78097 17.6762 6.70478 17.5238 6.09526 17.5238C5.63812 17.5238 5.33335 17.2952 5.33335 16.9143C5.33335 16.6095 5.33335 16.2286 5.33335 16.1524C5.33335 15.6952 5.71431 15.1619 6.85716 15.1619C6.85716 13.7905 5.33335 12.8762 5.33335 11.7333C5.33335 10.6667 4.57145 9.06667 3.04764 8.30477L2.81907 8.22858C2.81907 8.22858 1.21907 10.9714 0.914307 13.9429L2.28574 16Z" fill="#7CB342"/>
<path d="M16 32C7.1619 32 0 24.8381 0 16C0 7.1619 7.1619 0 16 0C24.8381 0 32 7.1619 32 16C32 24.8381 24.8381 32 16 32ZM16 2.28571C8.45714 2.28571 2.28571 8.45714 2.28571 16C2.28571 23.5429 8.45714 29.7143 16 29.7143C23.5429 29.7143 29.7143 23.5429 29.7143 16C29.7143 8.45714 23.5429 2.28571 16 2.28571Z" fill="#BBDEFB"/>
</svg>
