<?xml version="1.0" encoding="UTF-8" standalone="no"?>
<svg width="148" height="148" viewBox="0 0 148 148" fill="none" xmlns="http://www.w3.org/2000/svg">
          <path fill-rule="evenodd" clip-rule="evenodd" d="M93.5823 140.644C123.376 140.644 147.528 116.516 147.528 86.7523C147.528 58.2012 125.304 34.8358 97.1941 32.9795C90.6132 17.509 75.2622 6.66016 57.3748 6.66016C33.4906 6.66016 14.1287 26.0026 14.1287 49.8626C14.1287 52.3896 14.3459 54.8659 14.7626 57.274C5.8779 63.0283 0 73.0225 0 84.388C0 102.222 14.4716 116.679 32.3232 116.679C37.4675 116.679 42.3311 115.478 46.6487 113.342C55.9244 129.647 73.4678 140.644 93.5823 140.644Z" fill="#EAEAEA"></path>
          <path fill-rule="evenodd" clip-rule="evenodd" d="M79.2284 38.0403L117.281 103.94C118.377 105.817 118.383 108.139 117.295 110.021C116.208 111.904 114.194 113.059 112.02 113.048H35.9181C33.7449 113.06 31.7317 111.907 30.643 110.026C29.5542 108.145 29.5568 105.825 30.6499 103.947L68.7027 38.0474C69.7781 36.1547 71.7866 34.9849 73.9635 34.9834C76.1403 34.9819 78.1504 36.1491 79.2284 38.0403Z" fill="#595668"></path>
          <path fill-rule="evenodd" clip-rule="evenodd" d="M42.173 103.373L73.9673 48.2993L105.765 103.373H42.173Z" fill="#A9BBBF"></path>
          <path fill-rule="evenodd" clip-rule="evenodd" d="M73.645 63.1035H73.645C75.7411 63.1035 77.4403 64.7962 77.4403 66.8843V82.1773C77.4403 84.2654 75.7411 85.9581 73.645 85.9581H73.645C71.5489 85.9581 69.8497 84.2654 69.8497 82.1773V66.8843C69.8497 64.7962 71.5489 63.1035 73.645 63.1035Z" fill="#595668"></path>
          <path fill-rule="evenodd" clip-rule="evenodd" d="M77.6824 92.4377C77.6824 94.6667 75.8756 96.4736 73.6467 96.4736C71.4178 96.4736 69.611 94.6667 69.611 92.4377C69.611 90.2088 71.4178 88.4019 73.6467 88.4019C75.8756 88.4019 77.6824 90.2088 77.6824 92.4377Z" fill="#595668"></path>
          <mask id="mask0" mask-type="alpha" maskUnits="userSpaceOnUse" x="73" y="35" width="46" height="79">
            <path fill-rule="evenodd" clip-rule="evenodd" d="M73.8035 35.0161H118.092V113.059H73.8035V35.0161Z" fill="white"></path>
          </mask>
          <g mask="url(#mask0)">

          </g>
        </svg>
