<svg width="24" height="24" viewBox="0 0 24 24" fill="none" xmlns="http://www.w3.org/2000/svg">
<path fill-rule="evenodd" clip-rule="evenodd" d="M7.638 3.395C5.061 3.395 3.396 5.162 3.396 7.888V16.102C3.396 16.867 3.538 17.55 3.781 18.141C3.79149 18.1285 4.02036 17.8496 4.31892 17.4857C4.9024 16.7747 5.75205 15.7393 5.758 15.734C6.45 14.944 7.749 13.766 9.454 14.479C9.82761 14.6339 10.1597 14.8461 10.4654 15.0415C10.4952 15.0605 10.5247 15.0794 10.554 15.098C11.127 15.481 11.464 15.661 11.814 15.631C11.959 15.611 12.095 15.568 12.224 15.488C12.7106 15.188 13.9722 13.4004 14.35 12.8651C14.4054 12.7866 14.4418 12.735 14.454 12.719C15.544 11.299 17.224 10.919 18.624 11.759C18.812 11.871 20.159 12.812 20.605 13.19V7.888C20.605 5.162 18.94 3.395 16.354 3.395H7.638ZM16.354 2C19.731 2 22 4.362 22 7.888V16.102C22 16.1907 21.9907 16.2738 21.9814 16.357C21.9748 16.4154 21.9683 16.4737 21.965 16.534C21.9629 16.5704 21.9618 16.6069 21.9608 16.6433C21.9594 16.6919 21.958 16.7404 21.954 16.789C21.952 16.808 21.9482 16.8263 21.9445 16.8445C21.9408 16.8627 21.937 16.881 21.935 16.9C21.902 17.214 21.851 17.514 21.78 17.805C21.7632 17.8777 21.7438 17.9478 21.7243 18.0186L21.72 18.034C21.64 18.316 21.546 18.585 21.433 18.842C21.4132 18.8852 21.3923 18.9273 21.3714 18.9695C21.3575 18.9975 21.3436 19.0256 21.33 19.054C21.208 19.299 21.076 19.534 20.923 19.752C20.8947 19.7924 20.8646 19.8302 20.8344 19.8681C20.8145 19.8931 20.7945 19.9181 20.775 19.944C20.616 20.15 20.45 20.347 20.262 20.526C20.2245 20.5617 20.1839 20.5944 20.1433 20.627C20.118 20.6474 20.0926 20.6678 20.068 20.689C19.875 20.855 19.678 21.014 19.461 21.15C19.4136 21.1798 19.3633 21.2047 19.3132 21.2296C19.2808 21.2457 19.2484 21.2617 19.217 21.279C18.996 21.401 18.773 21.52 18.53 21.612C18.4715 21.6342 18.4093 21.6503 18.3469 21.6664C18.3026 21.6778 18.2582 21.6893 18.215 21.703C18.1934 21.7097 18.1717 21.7164 18.1501 21.7231C17.9331 21.7907 17.7167 21.858 17.483 21.898C17.3476 21.9217 17.2039 21.9308 17.0601 21.94C16.9978 21.9439 16.9356 21.9479 16.874 21.953C16.8078 21.9579 16.7428 21.9659 16.6778 21.9739C16.5721 21.987 16.4661 22 16.354 22H7.638C7.262 22 6.903 21.962 6.556 21.905C6.543 21.903 6.531 21.901 6.519 21.899C5.166 21.666 4.043 21.013 3.256 20.028C3.25053 20.028 3.24839 20.0243 3.24553 20.0194C3.24368 20.0162 3.24153 20.0125 3.238 20.009C2.447 19.013 2 17.674 2 16.102V7.888C2 4.362 4.271 2 7.638 2H16.354ZM11.0006 8.51456C11.0006 9.86951 9.86688 10.9996 8.50544 10.9996C7.30874 10.9996 6.28839 10.1253 6.05971 8.99323C6.02192 8.82338 6.0006 8.6487 6.0006 8.46824C6.0006 7.10363 7.10913 5.9996 8.47928 5.9996C9.17696 5.9996 9.80874 6.29298 10.2613 6.76104C10.7157 7.21269 11.0006 7.83515 11.0006 8.51456Z" fill="white"/>
</svg>
