<svg width="24" height="24" viewBox="0 0 24 24" fill="none" xmlns="http://www.w3.org/2000/svg">
<path fill-rule="evenodd" clip-rule="evenodd" d="M2 11.999C2 6.48002 6.48 1.99902 12 1.99902C17.53 1.99902 22 6.48002 22 11.999C22 17.52 17.53 21.999 12 21.999C6.48 21.999 2 17.52 2 11.999ZM11.12 8.20902C11.12 7.73002 11.52 7.32902 12 7.32902C12.48 7.32902 12.87 7.73002 12.87 8.20902V12.629C12.87 13.11 12.48 13.499 12 13.499C11.52 13.499 11.12 13.11 11.12 12.629V8.20902ZM12.01 16.68C11.52 16.68 11.13 16.28 11.13 15.8C11.13 15.32 11.52 14.93 12 14.93C12.49 14.93 12.88 15.32 12.88 15.8C12.88 16.28 12.49 16.68 12.01 16.68Z" fill="white"/>
</svg>
