<svg width="24" height="24" viewBox="0 0 24 24" fill="none" xmlns="http://www.w3.org/2000/svg">
<path d="M9.34933 14.8574C5.38553 14.8574 2 15.4697 2 17.9171C2 20.3663 5.364 20.9997 9.34933 20.9997C13.3131 20.9997 16.6987 20.3874 16.6987 17.9401C16.6987 15.4908 13.3347 14.8574 9.34933 14.8574Z" fill="#80cbc4"/>
<path opacity="0.4" d="M9.34935 12.5248C12.049 12.5248 14.2124 10.4062 14.2124 7.76241C14.2124 5.11865 12.049 3 9.34935 3C6.65072 3 4.48633 5.11865 4.48633 7.76241C4.48633 10.4062 6.65072 12.5248 9.34935 12.5248Z" fill="#80cbc4"/>
<path opacity="0.4" d="M16.1728 7.84922C16.1728 9.19553 15.7599 10.4518 15.0358 11.4953C14.9605 11.6026 15.027 11.7473 15.1581 11.7703C15.3401 11.8 15.527 11.8182 15.7178 11.822C17.616 11.8709 19.3196 10.6741 19.7902 8.87165C20.4879 6.19723 18.4409 3.7959 15.8333 3.7959C15.5505 3.7959 15.2794 3.82465 15.0153 3.87735C14.9791 3.88501 14.9399 3.90226 14.9203 3.93293C14.8949 3.97221 14.9135 4.023 14.9389 4.05654C15.7227 5.13263 16.1728 6.44253 16.1728 7.84922Z" fill="#80cbc4"/>
<path d="M21.7785 15.1697C21.4311 14.4444 20.5926 13.947 19.3166 13.7027C18.7149 13.559 17.0847 13.3548 15.5691 13.3836C15.5465 13.3865 15.5338 13.4018 15.5319 13.4114C15.5289 13.4267 15.5358 13.4497 15.5651 13.466C16.2657 13.8052 18.9732 15.2809 18.6327 18.3932C18.618 18.5293 18.7286 18.6443 18.8665 18.6251C19.5329 18.5322 21.2472 18.1709 21.7785 17.0479C22.073 16.4538 22.073 15.7638 21.7785 15.1697Z" fill="#80cbc4"/>
</svg>
