<svg width="24" height="24" viewBox="0 0 24 24" fill="none" xmlns="http://www.w3.org/2000/svg">
<g clip-path="url(#clip0_1578_23337)">
<path opacity="0.4" d="M15.7975 10.8096L19.4967 10.4824C20.3269 10.4824 21 11.1621 21 12.0003C21 12.8386 20.3269 13.5182 19.4967 13.5182L15.7975 13.1911C15.1463 13.1911 14.6183 12.6579 14.6183 12.0003C14.6183 11.3416 15.1463 10.8096 15.7975 10.8096Z" fill="#80cbc4"/>
<path d="M3.37436 10.8698C3.43218 10.8115 3.64818 10.5647 3.85108 10.3598C5.03471 9.07656 8.12521 6.97815 9.74192 6.33596C9.98737 6.23352 10.6081 6.01542 10.9408 6C11.2583 6 11.5615 6.0738 11.8506 6.2192C12.2117 6.42299 12.4997 6.74463 12.659 7.12355C12.7604 7.38572 12.9197 8.17331 12.9197 8.18763C13.0779 9.04792 13.1641 10.4469 13.1641 11.9934C13.1641 13.465 13.0779 14.8067 12.9481 15.6813C12.9339 15.6967 12.7746 16.6738 12.6012 17.0086C12.2837 17.6211 11.663 18 10.9986 18H10.9408C10.5077 17.9857 9.59792 17.6057 9.59792 17.5924C8.0674 16.9502 5.04998 14.9532 3.8369 13.6258C3.8369 13.6258 3.49436 13.2844 3.346 13.0718C3.11473 12.7656 2.99909 12.3866 2.99909 12.0077C2.99909 11.5847 3.12891 11.1915 3.37436 10.8698Z" fill="#80cbc4"/>
</g>
<defs>
<clipPath id="clip0_1578_23337">
<rect width="24" height="24" fill="#80cbc4"/>
</clipPath>
</defs>
</svg>
