<svg width="24" height="24" viewBox="0 0 24 24" fill="none" xmlns="http://www.w3.org/2000/svg">
<g clip-path="url(#clip0_1578_23336)">
<path opacity="0.4" d="M12 22C6.485 22 2 17.514 2 12C2 6.486 6.485 2 12 2C17.514 2 22 6.486 22 12C22 17.514 17.514 22 12 22Z" fill="#80cbc4"/>
<path d="M13.442 16.2211C13.251 16.2211 13.059 16.1481 12.913 16.0021L9.42603 12.5321C9.28503 12.3911 9.20603 12.2001 9.20603 12.0001C9.20603 11.8011 9.28503 11.6101 9.42603 11.4691L12.913 7.99707C13.206 7.70507 13.68 7.70507 13.973 7.99907C14.265 8.29307 14.264 8.76807 13.971 9.06007L11.018 12.0001L13.971 14.9401C14.264 15.2321 14.265 15.7061 13.973 16.0001C13.827 16.1481 13.634 16.2211 13.442 16.2211Z" fill="#80cbc4"/>
</g>
<defs>
<clipPath id="clip0_1578_23336">
<rect width="24" height="24" fill="#80cbc4"/>
</clipPath>
</defs>
</svg>
