<svg width="24" height="24" viewBox="0 0 24 24" fill="none" xmlns="http://www.w3.org/2000/svg">
<path opacity="0.4" d="M16.34 2H7.67C4.28 2 2 4.38 2 7.92V16.09C2 19.62 4.28 22 7.67 22H16.34C19.73 22 22 19.62 22 16.09V7.92C22 4.38 19.73 2 16.34 2Z" fill="#fca5b5"/>
<path d="M15.0163 13.7705L13.2373 11.9925L15.0153 10.2145C15.3573 9.8735 15.3573 9.3185 15.0153 8.9775C14.6733 8.6335 14.1203 8.6345 13.7783 8.9765L11.9993 10.7545L10.2203 8.9745C9.87831 8.6325 9.32431 8.6345 8.98231 8.9745C8.64131 9.3165 8.64131 9.8715 8.98231 10.2125L10.7623 11.9925L8.98631 13.7675C8.64431 14.1095 8.64431 14.6645 8.98631 15.0045C9.15731 15.1765 9.38031 15.2615 9.60431 15.2615C9.82931 15.2615 10.0523 15.1765 10.2233 15.0055L11.9993 13.2295L13.7793 15.0085C13.9503 15.1795 14.1733 15.2645 14.3973 15.2645C14.6213 15.2645 14.8453 15.1785 15.0163 15.0085C15.3583 14.6665 15.3583 14.1125 15.0163 13.7705Z" fill="#fca5b5"/>
</svg>
