<svg width="24" height="24" viewBox="0 0 24 24" fill="none" xmlns="http://www.w3.org/2000/svg">
<path opacity="0.4" d="M16.191 2H7.81C4.77 2 3 3.78 3 6.83V17.16C3 20.26 4.77 22 7.81 22H16.191C19.28 22 21 20.26 21 17.16V6.83C21 3.78 19.28 2 16.191 2Z" fill="#80cbc4"/>
<path fill-rule="evenodd" clip-rule="evenodd" d="M8.08094 6.65039V6.66039C7.64994 6.66039 7.30094 7.01039 7.30094 7.44039C7.30094 7.87039 7.64994 8.22039 8.08094 8.22039H11.0699C11.5009 8.22039 11.8509 7.87039 11.8509 7.42939C11.8509 7.00039 11.5009 6.65039 11.0699 6.65039H8.08094ZM15.9209 12.7404H8.08094C7.64994 12.7404 7.30094 12.3904 7.30094 11.9604C7.30094 11.5304 7.64994 11.1794 8.08094 11.1794H15.9209C16.3509 11.1794 16.7009 11.5304 16.7009 11.9604C16.7009 12.3904 16.3509 12.7404 15.9209 12.7404ZM15.9209 17.3104H8.08094C7.78094 17.3504 7.49094 17.2004 7.33094 16.9504C7.17094 16.6904 7.17094 16.3604 7.33094 16.1104C7.49094 15.8504 7.78094 15.7104 8.08094 15.7404H15.9209C16.3199 15.7804 16.6209 16.1204 16.6209 16.5304C16.6209 16.9294 16.3199 17.2704 15.9209 17.3104Z" fill="#80cbc4"/>
</svg>
