<svg width="24" height="24" viewBox="0 0 24 24" fill="none" xmlns="http://www.w3.org/2000/svg">
<path opacity="0.4" d="M16.34 2H7.67C4.28 2 2 4.38 2 7.92V16.09C2 19.62 4.28 22 7.67 22H16.34C19.73 22 22 19.62 22 16.09V7.92C22 4.38 19.73 2 16.34 2Z" fill="#80cbc4"/>
<path fill-rule="evenodd" clip-rule="evenodd" d="M7.52027 10.8037C6.85927 10.8037 6.32227 11.3407 6.32227 11.9997C6.32227 12.6597 6.85927 13.1977 7.52027 13.1977C8.18127 13.1977 8.71827 12.6597 8.71827 11.9997C8.71827 11.3407 8.18127 10.8037 7.52027 10.8037ZM11.9993 10.8037C11.3383 10.8037 10.8013 11.3407 10.8013 11.9997C10.8013 12.6597 11.3383 13.1977 11.9993 13.1977C12.6603 13.1977 13.1973 12.6597 13.1973 11.9997C13.1973 11.3407 12.6603 10.8037 11.9993 10.8037ZM15.2808 11.9997C15.2808 11.3407 15.8178 10.8037 16.4788 10.8037C17.1398 10.8037 17.6768 11.3407 17.6768 11.9997C17.6768 12.6597 17.1398 13.1977 16.4788 13.1977C15.8178 13.1977 15.2808 12.6597 15.2808 11.9997Z" fill="#80cbc4"/>
</svg>
