<svg width="24" height="24" viewBox="0 0 24 24" fill="none" xmlns="http://www.w3.org/2000/svg">
<path opacity="0.4" d="M12.086 22C11.9622 22 11.8393 21.9716 11.7276 21.9137L8.12627 20.0496C7.10336 19.5201 6.30397 18.9259 5.68076 18.2336C4.31353 16.7195 3.55441 14.776 3.54132 12.7599L3.50004 6.12426C3.495 5.35842 3.98833 4.67103 4.72732 4.41215L11.34 2.10679C11.7336 1.96656 12.1716 1.9646 12.5703 2.09992L19.2081 4.32684C19.9511 4.57493 20.4535 5.25742 20.4575 6.02228L20.4998 12.6628C20.5129 14.676 19.7799 16.6274 18.4349 18.1581C17.8167 18.8602 17.0253 19.4632 16.0135 20.0025L12.4444 21.9088C12.3337 21.9686 12.2098 21.999 12.086 22Z" fill="#80cbc4"/>
<path d="M13.0683 11.7252L14.4265 10.4024C14.7215 10.1151 14.7215 9.65026 14.4265 9.36295C14.1315 9.07563 13.6533 9.07563 13.3583 9.36295L12.0001 10.6848L10.643 9.36295C10.348 9.07563 9.86975 9.07563 9.57476 9.36295C9.27977 9.65026 9.27977 10.1151 9.57476 10.4024L10.9329 11.7252L9.57476 13.048C9.27977 13.3353 9.27977 13.8001 9.57476 14.0874C9.72276 14.2316 9.91606 14.3032 10.1094 14.3032C10.3017 14.3032 10.495 14.2316 10.643 14.0874L12.0001 12.7656L13.3583 14.0874C13.5063 14.2316 13.6986 14.3032 13.8919 14.3032C14.0852 14.3032 14.2785 14.2316 14.4265 14.0874C14.7215 13.8001 14.7215 13.3353 14.4265 13.048L13.0683 11.7252Z" fill="#80cbc4"/>
</svg>
