<svg width="24" height="24" viewBox="0 0 24 24" fill="none" xmlns="http://www.w3.org/2000/svg">
<path opacity="0.4" d="M16.34 2H7.67C4.28 2 2 4.38 2 7.92V16.09C2 19.62 4.28 22 7.67 22H16.34C19.73 22 22 19.62 22 16.09V7.92C22 4.38 19.73 2 16.34 2Z" fill="#80cbc4"/>
<path d="M10.813 15.2485C10.589 15.2485 10.365 15.1635 10.194 14.9925L7.82095 12.6195C7.47895 12.2775 7.47895 11.7235 7.82095 11.3825C8.16295 11.0405 8.71595 11.0395 9.05795 11.3815L10.813 13.1365L14.941 9.00845C15.283 8.66645 15.836 8.66645 16.178 9.00845C16.52 9.35045 16.52 9.90445 16.178 10.2465L11.432 14.9925C11.261 15.1635 11.037 15.2485 10.813 15.2485Z" fill="#80cbc4"/>
</svg>
