<svg width="24" height="24" viewBox="0 0 24 24" fill="none" xmlns="http://www.w3.org/2000/svg">
<path fill-rule="evenodd" clip-rule="evenodd" d="M9.592 15.207C13.281 15.207 16.434 15.766 16.434 17.999C16.434 20.232 13.302 20.807 9.592 20.807C5.902 20.807 2.75 20.253 2.75 18.019C2.75 15.785 5.881 15.207 9.592 15.207Z" stroke="white" stroke-width="1.5" stroke-linecap="round" stroke-linejoin="round"/>
<path fill-rule="evenodd" clip-rule="evenodd" d="M9.59108 12.02C7.16908 12.02 5.20508 10.057 5.20508 7.635C5.20508 5.213 7.16908 3.25 9.59108 3.25C12.0121 3.25 13.9761 5.213 13.9761 7.635C13.9851 10.048 12.0351 12.011 9.62208 12.02H9.59108Z" stroke="white" stroke-width="1.5" stroke-linecap="round" stroke-linejoin="round"/>
<path d="M16.4844 10.8823C18.0854 10.6573 19.3184 9.28326 19.3214 7.62026C19.3214 5.98126 18.1264 4.62126 16.5594 4.36426" stroke="white" stroke-width="1.5" stroke-linecap="round" stroke-linejoin="round"/>
<path d="M18.5957 14.7324C20.1467 14.9634 21.2297 15.5074 21.2297 16.6274C21.2297 17.3984 20.7197 17.8984 19.8957 18.2114" stroke="white" stroke-width="1.5" stroke-linecap="round" stroke-linejoin="round"/>
</svg>
