<svg width="24" height="24" viewBox="0 0 24 24" fill="none" xmlns="http://www.w3.org/2000/svg">
<path fill-rule="evenodd" clip-rule="evenodd" d="M16.5134 21.5003H8.16555C5.09919 21.5003 2.74679 20.3927 3.41498 15.9351L4.19301 9.89387C4.60491 7.66962 6.02367 6.81836 7.26852 6.81836H17.447C18.7102 6.81836 20.0466 7.73369 20.5225 9.89387L21.3006 15.9351C21.8681 19.8893 19.5797 21.5003 16.5134 21.5003Z" stroke="white" stroke-width="1.5" stroke-linecap="round" stroke-linejoin="round"/>
<path d="M16.6512 6.59873C16.6512 4.21265 14.7169 2.27836 12.3309 2.27836V2.27836C11.1819 2.27349 10.0782 2.72652 9.26406 3.53727C8.44987 4.34803 7.99218 5.44971 7.99219 6.59873H7.99219" stroke="white" stroke-width="1.5" stroke-linecap="round" stroke-linejoin="round"/>
<path d="M15.297 11.1022H15.2512" stroke="white" stroke-width="1.5" stroke-linecap="round" stroke-linejoin="round"/>
<path d="M9.46492 11.1022H9.41916" stroke="white" stroke-width="1.5" stroke-linecap="round" stroke-linejoin="round"/>
</svg>
