<svg width="24" height="24" viewBox="0 0 24 24" fill="none" xmlns="http://www.w3.org/2000/svg">
<path fill-rule="evenodd" clip-rule="evenodd" d="M17.2787 13.8887C17.9534 13.8887 18.5197 14.4455 18.4166 15.1118C17.8113 19.0318 14.4555 21.9423 10.4081 21.9423C5.93025 21.9423 2.30078 18.3129 2.30078 13.836C2.30078 10.1476 5.10289 6.71181 8.25762 5.93497C8.93552 5.7676 9.63025 6.24445 9.63025 6.94234C9.63025 11.6708 9.7892 12.8939 10.6871 13.5592C11.585 14.2244 12.6408 13.8887 17.2787 13.8887Z" stroke="white" stroke-width="1.5" stroke-linecap="round" stroke-linejoin="round"/>
<path fill-rule="evenodd" clip-rule="evenodd" d="M21.6941 9.95121C21.7478 6.91331 18.0162 2.01647 13.4688 2.10068C13.1151 2.107 12.832 2.40173 12.8162 2.75437C12.7015 5.25226 12.8562 8.4891 12.9425 9.95647C12.9688 10.4133 13.3278 10.7723 13.7836 10.7986C15.292 10.8849 18.6467 11.0028 21.1088 10.6302C21.4436 10.5796 21.6888 10.2891 21.6941 9.95121Z" stroke="white" stroke-width="1.5" stroke-linecap="round" stroke-linejoin="round"/>
</svg>
