<svg width="24" height="24" viewBox="0 0 24 24" fill="none" xmlns="http://www.w3.org/2000/svg">
<path fill-rule="evenodd" clip-rule="evenodd" d="M16.303 2.75H7.651C4.639 2.75 2.75 4.884 2.75 7.904V16.05C2.75 19.07 4.631 21.204 7.651 21.204H16.298C19.323 21.204 21.203 19.07 21.203 16.05V7.904C21.207 4.884 19.326 2.75 16.303 2.75Z" stroke="white" stroke-width="1.5" stroke-linecap="round" stroke-linejoin="round"/>
<path fill-rule="evenodd" clip-rule="evenodd" d="M10.7037 8.78545C10.7037 9.80545 9.87772 10.6315 8.85772 10.6315C7.83872 10.6315 7.01172 9.80545 7.01172 8.78545C7.01172 7.76545 7.83872 6.93945 8.85772 6.93945C9.87672 6.94045 10.7027 7.76645 10.7037 8.78545Z" stroke="white" stroke-width="1.5" stroke-linecap="round" stroke-linejoin="round"/>
<path d="M21.207 14.951C20.284 14.001 18.509 12.082 16.579 12.082C14.648 12.082 13.535 16.315 11.678 16.315C9.821 16.315 8.134 14.401 6.646 15.628C5.158 16.854 3.75 19.361 3.75 19.361" stroke="white" stroke-width="1.5" stroke-linecap="round" stroke-linejoin="round"/>
</svg>
