<svg width="24" height="24" viewBox="0 0 24 24" fill="none" xmlns="http://www.w3.org/2000/svg">
<path fill-rule="evenodd" clip-rule="evenodd" d="M16.2976 15.5383C16.3785 17.3704 14.8999 18.9196 12.9953 18.9975C12.8551 19.0034 6.01604 18.9896 6.01604 18.9896C4.12069 19.1335 2.46188 17.7715 2.31238 15.9463C2.30112 15.8103 2.30419 8.47219 2.30419 8.47219C2.22023 6.63815 3.69678 5.08499 5.60236 5.00418C5.74469 4.99728 12.5745 5.01009 12.5745 5.01009C14.4791 4.86818 16.143 6.24001 16.2904 8.07405C16.3007 8.2061 16.2976 15.5383 16.2976 15.5383Z" stroke="white" stroke-width="1.5" stroke-linecap="round" stroke-linejoin="round"/>
<path d="M16.3008 9.97984L19.5938 7.28484C20.4098 6.61684 21.6338 7.19884 21.6328 8.25184L21.6208 15.6008C21.6198 16.6538 20.3948 17.2308 19.5808 16.5628L16.3008 13.8678" stroke="white" stroke-width="1.5" stroke-linecap="round" stroke-linejoin="round"/>
</svg>
